# xmcd
#
# Track frame offsets:
#	150
#	15615
#	26442
#	42370
#	50842
#	63630
#	78830
#	97507
#	112052
#	125347
#	144875
#	157412
#	171882
#
# Disc length: 2577 seconds
#
# Revision: 2
# Processed by: cddbd v1.4PL0 Copyright (c) Steve Scherf et al.
# Submitted via: audiograbber 1.81.02
#
DISCID=a80a0f0d
DTITLE=Hank Williams III - Lovesick Broke and Driftin'
DYEAR=2000
DGENRE=Country
TTITLE0=7 Months, 39 Days
TTITLE1=Broke, Lovesick and Driftin'
TTITLE2=Cecil Brown
TTITLE3=Lovin' and Huggin
TTITLE4=One Horse Town
TTITLE5=Mississippi Mud
TTITLE6=Whiskey, Weed and Women
TTITLE7=Trashville
TTITLE8=Walkin' With Sorrow
TTITLE9=5 Shots Of Whiskey
TTITLE10=Nighttime Ramblin' Man
TTITLE11=Callin' Your Name
TTITLE12=Atlantic City
EXTD=
EXTT0=
EXTT1=
EXTT2=
EXTT3=
EXTT4=
EXTT5=
EXTT6=
EXTT7=
EXTT8=
EXTT9=
EXTT10=
EXTT11=
EXTT12=
PLAYORDER=
